<svg width="24" height="20" viewBox="0 0 24 20" fill="none" xmlns="http://www.w3.org/2000/svg">
<g clip-path="url(#clip0_170_236)">
<path d="M8.4 12H9.6V3.6H8.4C7.73738 3.6 7.2 4.13738 7.2 4.8V10.8C7.2 11.4626 7.73738 12 8.4 12ZM21.6 10.8V4.8C21.6 4.13738 21.0626 3.6 20.4 3.6H19.2V12H20.4C21.0626 12 21.6 11.4626 21.6 10.8ZM23.4 14.4H4.8V0.6C4.8 0.2685 4.5315 0 4.2 0H0.6C0.2685 0 0 0.2685 0 0.6V1.8C0 2.1315 0.2685 2.4 0.6 2.4H2.4V16.2C2.4 16.5315 2.6685 16.8 3 16.8H6.11025C6.04313 16.9886 6 17.1885 6 17.4C6 18.3941 6.80588 19.2 7.8 19.2C8.79413 19.2 9.6 18.3941 9.6 17.4C9.6 17.1885 9.55688 16.9886 9.48975 16.8H16.9103C16.8431 16.9886 16.8 17.1885 16.8 17.4C16.8 18.3941 17.6059 19.2 18.6 19.2C19.5941 19.2 20.4 18.3941 20.4 17.4C20.4 17.1885 20.3569 16.9886 20.2898 16.8H23.4C23.7315 16.8 24 16.5315 24 16.2V15C24 14.6685 23.7315 14.4 23.4 14.4ZM18 3.6V1.8C18 0.805875 17.1941 0 16.2 0H12.6C11.6059 0 10.8 0.805875 10.8 1.8V12H18V3.6ZM16.2 3.6H12.6V1.8H16.2V3.6Z" fill="#285CA7"/>
</g>
<defs>
<clipPath id="clip0_170_236">
<rect width="24" height="19.2" fill="white"/>
</clipPath>
</defs>
</svg>
