<svg width="24" height="24" viewBox="0 0 24 24" fill="none" xmlns="http://www.w3.org/2000/svg">
<path d="M11.25 17.25V18C11.25 18.1989 11.171 18.3897 11.0303 18.5303C10.8897 18.671 10.6989 18.75 10.5 18.75H9V19.5C9 19.8978 8.84196 20.2794 8.56066 20.5607C8.27936 20.842 7.89782 21 7.5 21H4.5C4.10218 21 3.72064 20.842 3.43934 20.5607C3.15804 20.2794 3 19.8978 3 19.5V17.5605C3.00008 17.1627 3.15818 16.7812 3.4395 16.5L9.2445 10.695C8.88856 9.48636 8.92214 8.19633 9.34048 7.00784C9.75883 5.81935 10.5407 4.79272 11.5752 4.07351C12.6098 3.35431 13.8445 2.97904 15.1042 3.0009C16.364 3.02277 17.5849 3.44067 18.5939 4.19535C19.6028 4.95002 20.3486 6.00317 20.7255 7.20546C21.1023 8.40775 21.0911 9.69817 20.6934 10.8937C20.2957 12.0893 19.5318 13.1293 18.5099 13.8664C17.488 14.6034 16.26 15 15 15H13.4985V16.5C13.4985 16.6989 13.4195 16.8897 13.2788 17.0303C13.1382 17.171 12.9474 17.25 12.7485 17.25H11.25ZM16.5 9C16.8978 9 17.2794 8.84196 17.5607 8.56066C17.842 8.27936 18 7.89783 18 7.5C18 7.10218 17.842 6.72065 17.5607 6.43934C17.2794 6.15804 16.8978 6 16.5 6C16.1022 6 15.7206 6.15804 15.4393 6.43934C15.158 6.72065 15 7.10218 15 7.5C15 7.89783 15.158 8.27936 15.4393 8.56066C15.7206 8.84196 16.1022 9 16.5 9Z" fill="#1E1E1E"/>
</svg>
