<svg width="24" height="24" viewBox="0 0 24 24" fill="none" xmlns="http://www.w3.org/2000/svg">
<path fill-rule="evenodd" clip-rule="evenodd" d="M5.79247 1.96423C6.16752 1.58929 6.67614 1.37866 7.20647 1.37866C7.73679 1.37866 8.24541 1.58929 8.62047 1.96423L10.7417 4.08593C11.1321 4.4765 11.1321 5.10966 10.7415 5.50014C10.3509 5.89062 9.71775 5.89054 9.32728 5.49997L7.20647 3.37866L4.37807 6.20706L6.49949 8.32826C6.89006 8.71874 6.89013 9.3519 6.49966 9.74247C6.10918 10.133 5.47601 10.1331 5.08544 9.74264L2.964 7.6217C2.96398 7.62168 2.96402 7.62172 2.964 7.6217C2.77823 7.43598 2.6308 7.21543 2.53025 6.97275C2.42969 6.73005 2.37793 6.46991 2.37793 6.2072C2.37793 5.94449 2.42969 5.68435 2.53025 5.44164C2.63078 5.199 2.77812 4.97854 2.96386 4.79284C2.96381 4.79289 2.96391 4.79279 2.96386 4.79284L5.79247 1.96423ZM17.9994 13.7573C18.3899 13.3668 19.023 13.3668 19.4136 13.7573L21.5351 15.8788C21.91 16.2539 22.1208 16.7626 22.1208 17.2929C22.1208 17.8233 21.9101 18.3319 21.5352 18.7069L18.7067 21.5354C18.7067 21.5355 18.7068 21.5354 18.7067 21.5354C18.521 21.7211 18.3004 21.8686 18.0578 21.9692C17.8151 22.0697 17.5549 22.1215 17.2922 22.1215C17.0295 22.1215 16.7694 22.0697 16.5267 21.9692C16.284 21.8686 16.0635 21.7212 15.8778 21.5355C15.8778 21.5355 15.8778 21.5355 15.8778 21.5355L13.7568 19.414C13.3663 19.0234 13.3664 18.3902 13.7569 17.9998C14.1475 17.6093 14.7807 17.6094 15.1712 17.9999L17.2922 20.1214L20.1208 17.2929L17.9994 15.1716C17.6088 14.781 17.6088 14.1479 17.9994 13.7573Z" fill="black"/>
<path fill-rule="evenodd" clip-rule="evenodd" d="M15.8885 2.45401C16.6696 1.67296 17.9359 1.67296 18.7169 2.45401L21.5454 5.28244C22.3264 6.06348 22.3264 7.32981 21.5454 8.11086L8.11035 21.5459C7.3293 22.3269 6.06297 22.3269 5.28192 21.5459L2.45349 18.7175C1.67244 17.9364 1.67244 16.6701 2.45349 15.889L15.8885 2.45401ZM20.1312 6.69665L17.3027 3.86822L3.86771 17.3033L6.69613 20.1317L20.1312 6.69665Z" fill="black"/>
<path d="M12 13C12.5523 13 13 12.5523 13 12C13 11.4477 12.5523 11 12 11C11.4477 11 11 11.4477 11 12C11 12.5523 11.4477 13 12 13Z" fill="black"/>
<path d="M10 15C10.5523 15 11 14.5523 11 14C11 13.4477 10.5523 13 10 13C9.44772 13 9 13.4477 9 14C9 14.5523 9.44772 15 10 15Z" fill="black"/>
<path d="M14 11C14.5523 11 15 10.5523 15 10C15 9.44772 14.5523 9 14 9C13.4477 9 13 9.44772 13 10C13 10.5523 13.4477 11 14 11Z" fill="black"/>
</svg>
