<svg width="24" height="24" viewBox="0 0 24 24" fill="none" xmlns="http://www.w3.org/2000/svg">
<path fill-rule="evenodd" clip-rule="evenodd" d="M12 1.00001C13.4448 0.998305 14.8757 1.28206 16.2105 1.83498C17.5453 2.38788 18.7577 3.19904 19.7781 4.22187C20.8009 5.24228 21.6121 6.45471 22.165 7.78953C22.7179 9.12433 23.0017 10.5552 23 12C23.0017 13.4448 22.718 14.8757 22.165 16.2105C21.6121 17.5453 20.801 18.7577 19.7781 19.7781C18.7577 20.801 17.5453 21.6121 16.2105 22.165C14.8757 22.718 13.4448 23.0017 12 23C10.5552 23.0017 9.12433 22.7179 7.78953 22.165C6.45473 21.6121 5.24231 20.8009 4.22191 19.7781C3.19907 18.7577 2.38789 17.5453 1.83498 16.2105C1.28206 14.8757 0.998303 13.4448 1.00001 12C0.998337 10.5552 1.2821 9.12433 1.83501 7.78953C2.38793 6.45473 3.19908 5.24231 4.2219 4.2219C5.24231 3.19908 6.45473 2.38793 7.78953 1.83501C9.12433 1.2821 10.5552 0.998335 12 1.00001ZM15.4451 3.68273C14.3534 3.23049 13.183 2.99848 12.0013 3.00001H11.9987C10.817 2.9985 9.64667 3.23053 8.55492 3.68276C7.46316 4.135 6.47154 4.79852 5.63703 5.6352L5.6352 5.63703C4.79852 6.47154 4.135 7.46316 3.68276 8.55492C3.23053 9.64667 2.9985 10.817 3.00001 11.9987V12.0013C2.99848 13.183 3.23049 14.3534 3.68273 15.4451C4.13496 16.5369 4.79849 17.5285 5.63518 18.363L5.63703 18.3648C6.47154 19.2015 7.46316 19.865 8.55492 20.3173C9.64667 20.7695 10.817 21.0015 11.9987 21H12.0013C13.183 21.0015 14.3534 20.7695 15.4451 20.3173C16.5369 19.8651 17.5285 19.2015 18.363 18.3648L18.3648 18.363C19.2015 17.5285 19.8651 16.5369 20.3173 15.4451C20.7695 14.3534 21.0015 13.183 21 12.0013V11.9987C21.0015 10.817 20.7695 9.64667 20.3173 8.55492C19.865 7.46316 19.2015 6.47154 18.3648 5.63703L18.363 5.63518C17.5285 4.79849 16.5369 4.13496 15.4451 3.68273Z" fill="#FE5B02"/>
<path fill-rule="evenodd" clip-rule="evenodd" d="M17.7071 8.29289C18.0976 8.68342 18.0976 9.31658 17.7071 9.70711L11.7071 15.7071C11.3166 16.0976 10.6834 16.0976 10.2929 15.7071L7.29289 12.7071C6.90237 12.3166 6.90237 11.6834 7.29289 11.2929C7.68342 10.9024 8.31658 10.9024 8.70711 11.2929L11 13.5858L16.2929 8.29289C16.6834 7.90237 17.3166 7.90237 17.7071 8.29289Z" fill="#FE5B02"/>
</svg>
