<svg width="24" height="24" viewBox="0 0 24 24" fill="none" xmlns="http://www.w3.org/2000/svg">
<path d="M12.7043 19.5459C12.5994 19.4414 12.5162 19.3172 12.4594 19.1804C12.4026 19.0437 12.3734 18.8971 12.3734 18.749C12.3734 18.601 12.4026 18.4543 12.4594 18.3176C12.5162 18.1809 12.5994 18.0567 12.7043 17.9521L17.5315 13.125L3.75021 13.125C3.45184 13.125 3.16569 13.0064 2.95471 12.7955C2.74373 12.5845 2.62521 12.2983 2.62521 12C2.62521 11.7016 2.74373 11.4154 2.95471 11.2045C3.16569 10.9935 3.45184 10.875 3.75021 10.875L17.5315 10.875L12.7043 6.0459C12.4929 5.83455 12.3742 5.54791 12.3742 5.24902C12.3742 4.95014 12.4929 4.66349 12.7043 4.45215C12.9156 4.2408 13.2023 4.12207 13.5011 4.12207C13.8 4.12207 14.0867 4.2408 14.298 4.45215L21.048 11.2021C21.1529 11.3067 21.2361 11.4309 21.2929 11.5676C21.3497 11.7043 21.3789 11.851 21.3789 11.999C21.3789 12.1471 21.3497 12.2937 21.2929 12.4304C21.2361 12.5672 21.1529 12.6914 21.048 12.7959L14.298 19.5459C14.1935 19.6508 14.0693 19.734 13.9326 19.7908C13.7958 19.8476 13.6492 19.8768 13.5011 19.8768C13.3531 19.8768 13.2065 19.8476 13.0697 19.7908C12.933 19.734 12.8088 19.6508 12.7043 19.5459Z" fill="white"/>
</svg>
