<svg width="24" height="24" viewBox="0 0 24 24" fill="none" xmlns="http://www.w3.org/2000/svg">
<path d="M12 2.25C10.0716 2.25 8.18657 2.82183 6.58319 3.89317C4.97982 4.96451 3.73013 6.48726 2.99218 8.26884C2.25422 10.0504 2.06114 12.0108 2.43735 13.9021C2.81355 15.7934 3.74215 17.5307 5.10571 18.8943C6.46928 20.2579 8.20656 21.1865 10.0979 21.5627C11.9892 21.9389 13.9496 21.7458 15.7312 21.0078C17.5127 20.2699 19.0355 19.0202 20.1068 17.4168C21.1782 15.8134 21.75 13.9284 21.75 12C21.7473 9.41498 20.7192 6.93661 18.8913 5.10872C17.0634 3.28084 14.585 2.25273 12 2.25ZM4.65282 15.75H8.47969L10.0734 20.0231C8.91579 19.7425 7.83227 19.2155 6.89681 18.4781C5.96134 17.7407 5.19594 16.8101 4.65282 15.75ZM12 14.625C11.7033 14.625 11.4133 14.537 11.1666 14.3722C10.92 14.2074 10.7277 13.9731 10.6142 13.699C10.5007 13.4249 10.4709 13.1233 10.5288 12.8324C10.5867 12.5414 10.7296 12.2741 10.9393 12.0643C11.1491 11.8546 11.4164 11.7117 11.7074 11.6538C11.9983 11.5959 12.2999 11.6256 12.574 11.7392C12.8481 11.8527 13.0824 12.045 13.2472 12.2916C13.412 12.5383 13.5 12.8283 13.5 13.125C13.5 13.5228 13.342 13.9044 13.0607 14.1857C12.7794 14.467 12.3978 14.625 12 14.625ZM13.9181 20.0241L15.5203 15.75H19.3472C18.8033 16.8113 18.0367 17.7426 17.0997 18.4803C16.1627 19.2179 15.0774 19.7445 13.9181 20.0241ZM12 9C8.97824 9.00366 6.05543 10.0775 3.75 12.0309V12C3.75 9.81196 4.6192 7.71354 6.16637 6.16637C7.71355 4.61919 9.81197 3.75 12 3.75C14.188 3.75 16.2865 4.61919 17.8336 6.16637C19.3808 7.71354 20.25 9.81196 20.25 12V12.0309C17.9446 10.0775 15.0218 9.00366 12 9Z" fill="#285CA7"/>
</svg>
