<svg width="24" height="24" viewBox="0 0 24 24" fill="none" xmlns="http://www.w3.org/2000/svg">
<path d="M19.088 4.95509C19.081 4.94709 19.078 4.93609 19.071 4.92909C19.064 4.92209 19.053 4.91909 19.045 4.91109C17.1745 3.04652 14.6411 1.99951 12 1.99951C9.3589 1.99951 6.82551 3.04652 4.955 4.91109C4.947 4.91909 4.937 4.92109 4.929 4.92909C4.921 4.93709 4.919 4.94709 4.912 4.95509C3.51828 6.35552 2.57063 8.13743 2.18866 10.0759C1.80669 12.0144 2.00752 14.0226 2.7658 15.8471C3.52409 17.6716 4.80584 19.2305 6.44929 20.3272C8.09274 21.4239 10.0242 22.0092 12 22.0092C13.9758 22.0092 15.9073 21.4239 17.5507 20.3272C19.1942 19.2305 20.4759 17.6716 21.2342 15.8471C21.9925 14.0226 22.1933 12.0144 21.8113 10.0759C21.4294 8.13743 20.4817 6.35552 19.088 4.95509ZM12 20.0001C10.8023 19.9997 9.61998 19.7298 8.54068 19.2105C7.46139 18.6912 6.51274 17.9357 5.765 17.0001H9.78C10.0581 17.3145 10.3999 17.5662 10.7826 17.7386C11.1653 17.911 11.5802 18.0002 12 18.0002C12.4198 18.0002 12.8347 17.911 13.2174 17.7386C13.6002 17.5662 13.9419 17.3145 14.22 17.0001H18.235C17.4873 17.9357 16.5386 18.6912 15.4593 19.2105C14.38 19.7298 13.1977 19.9997 12 20.0001ZM11 15.0001C11 14.8023 11.0587 14.609 11.1685 14.4445C11.2784 14.2801 11.4346 14.1519 11.6173 14.0762C11.8 14.0005 12.0011 13.9807 12.1951 14.0193C12.3891 14.0579 12.5673 14.1531 12.7071 14.293C12.847 14.4328 12.9422 14.611 12.9808 14.805C13.0194 14.999 12.9996 15.2001 12.9239 15.3828C12.8482 15.5655 12.72 15.7217 12.5556 15.8316C12.3911 15.9414 12.1978 16.0001 12 16.0001C11.7349 15.9998 11.4807 15.8944 11.2932 15.7069C11.1057 15.5194 11.0003 15.2652 11 15.0001ZM19.41 15.0021L19.4 15.0001H15C14.9982 14.3817 14.8049 13.779 14.4468 13.2747C14.0887 12.7705 13.5833 12.3895 13 12.1841V9.00009C13 8.73488 12.8946 8.48052 12.7071 8.29299C12.5196 8.10545 12.2652 8.00009 12 8.00009C11.7348 8.00009 11.4804 8.10545 11.2929 8.29299C11.1054 8.48052 11 8.73488 11 9.00009V12.1841C10.4167 12.3895 9.91128 12.7705 9.55318 13.2747C9.19508 13.779 9.00184 14.3817 9 15.0001H4.6L4.59 15.0021C4.33001 14.3603 4.15519 13.6873 4.07 13.0001H5C5.26522 13.0001 5.51957 12.8947 5.70711 12.7072C5.89465 12.5197 6 12.2653 6 12.0001C6 11.7349 5.89465 11.4805 5.70711 11.293C5.51957 11.1054 5.26522 11.0001 5 11.0001H4.07C4.24864 9.57863 4.80801 8.23184 5.689 7.10209L6.343 7.75709C6.43525 7.8526 6.5456 7.92878 6.6676 7.98119C6.7896 8.0336 6.92082 8.06119 7.0536 8.06234C7.18638 8.0635 7.31806 8.0382 7.44096 7.98791C7.56386 7.93763 7.67551 7.86338 7.7694 7.76949C7.86329 7.67559 7.93755 7.56394 7.98783 7.44105C8.03811 7.31815 8.06341 7.18647 8.06225 7.05369C8.0611 6.92091 8.03352 6.78969 7.98111 6.66769C7.9287 6.54568 7.85251 6.43534 7.757 6.34309L7.103 5.68809C8.2326 4.80767 9.579 4.24866 11 4.07009V5.00009C11 5.26531 11.1054 5.51966 11.2929 5.7072C11.4804 5.89474 11.7348 6.00009 12 6.00009C12.2652 6.00009 12.5196 5.89474 12.7071 5.7072C12.8946 5.51966 13 5.26531 13 5.00009V4.07009C14.421 4.24866 15.7674 4.80767 16.897 5.68809L16.243 6.34309C16.1475 6.43534 16.0713 6.54568 16.0189 6.66769C15.9665 6.78969 15.9389 6.92091 15.9378 7.05369C15.9366 7.18647 15.9619 7.31815 16.0122 7.44105C16.0625 7.56394 16.1367 7.67559 16.2306 7.76949C16.3245 7.86338 16.4362 7.93763 16.5591 7.98791C16.6819 8.0382 16.8136 8.0635 16.9464 8.06234C17.0792 8.06119 17.2104 8.0336 17.3324 7.98119C17.4544 7.92878 17.5648 7.8526 17.657 7.75709L18.311 7.10209C19.1924 8.23173 19.7521 9.57853 19.931 11.0001H19C18.7348 11.0001 18.4804 11.1054 18.2929 11.293C18.1054 11.4805 18 11.7349 18 12.0001C18 12.2653 18.1054 12.5197 18.2929 12.7072C18.4804 12.8947 18.7348 13.0001 19 13.0001H19.93C19.8448 13.6873 19.67 14.3603 19.41 15.0021Z" fill="#1E1E1E"/>
</svg>
